<svg width="51" height="53" viewBox="0 0 51 53" fill="none" xmlns="http://www.w3.org/2000/svg">
<g clip-path="url(#clip0_508_86)">
<path d="M37.9778 46.3103C37.9778 46.452 37.9342 46.5881 37.8579 46.7189C37.7871 46.806 37.7163 46.8987 37.6455 46.9858C34.7582 50.4941 30.3947 52.7276 25.519 52.7276C20.6434 52.7276 16.2799 50.4941 13.3926 46.9858C13.3218 46.8987 13.2455 46.806 13.1802 46.7189C13.0984 46.5827 13.0603 46.4465 13.0603 46.3103C13.0603 44.6924 18.6387 43.3849 25.5245 43.3849C32.4103 43.3849 37.9887 44.6924 37.9887 46.3103H37.9778Z" fill="#F1EBF2" stroke="#1A187E" stroke-width="0.544763" stroke-miterlimit="10"/>
<path d="M37.9778 46.3103C37.9778 46.452 37.9342 46.5881 37.8579 46.7189C37.8034 46.8115 37.7326 46.8987 37.6455 46.9858C36.3435 48.2769 31.4079 49.2357 25.519 49.2357C19.6301 49.2357 14.6946 48.2769 13.3926 46.9858C13.3054 46.8987 13.2292 46.8115 13.1802 46.7189C13.0984 46.5827 13.0603 46.4465 13.0603 46.3103C13.0603 44.6924 18.6387 43.3849 25.5245 43.3849C32.4103 43.3849 37.9887 44.6924 37.9887 46.3103H37.9778Z" fill="#E1DEE2" stroke="#1A187E" stroke-width="0.544763" stroke-miterlimit="10"/>
<path d="M25.5137 47.8574C30.9563 47.8574 35.3685 47.1648 35.3685 46.3103C35.3685 45.4559 30.9563 44.7632 25.5137 44.7632C20.0711 44.7632 15.6589 45.4559 15.6589 46.3103C15.6589 47.1648 20.0711 47.8574 25.5137 47.8574Z" fill="#1A187E"/>
<path d="M31.3043 47.5578C29.6809 47.743 27.6762 47.852 25.5135 47.852C23.3508 47.852 21.3461 47.743 19.7227 47.5578C21.3515 46.3811 23.3508 45.6893 25.5135 45.6893C27.6762 45.6893 29.6755 46.3811 31.3043 47.5578Z" fill="url(#paint0_linear_508_86)"/>
<path d="M25.5137 44.7686C37.6927 44.7686 47.5657 34.8078 47.5657 22.5205C47.5657 10.2332 37.6927 0.272381 25.5137 0.272381C13.3347 0.272381 3.46167 10.2332 3.46167 22.5205C3.46167 34.8078 13.3347 44.7686 25.5137 44.7686Z" fill="#F1EBF2" stroke="#1A187E" stroke-width="0.544763" stroke-miterlimit="10"/>
<path d="M25.5134 36.8369C27.788 36.8369 29.6318 34.993 29.6318 32.7185C29.6318 30.4439 27.788 28.6001 25.5134 28.6001C23.2389 28.6001 21.395 30.4439 21.395 32.7185C21.395 34.993 23.2389 36.8369 25.5134 36.8369Z" fill="#F3E1F4" stroke="#1A187E" stroke-width="0.544763" stroke-miterlimit="10"/>
<path d="M25.5136 36.3466C27.5174 36.3466 29.1417 34.7222 29.1417 32.7185C29.1417 30.7147 27.5174 29.0903 25.5136 29.0903C23.5099 29.0903 21.8855 30.7147 21.8855 32.7185C21.8855 34.7222 23.5099 36.3466 25.5136 36.3466Z" fill="url(#paint1_linear_508_86)"/>
<path d="M43.8832 16.3974C43.9214 25.9362 5.39028 26.0669 7.2915 15.5911C10.9251 -3.92229 41.1267 -3.24678 43.8832 16.3974Z" fill="#E1DEE2" stroke="#1A187E" stroke-width="0.544763" stroke-miterlimit="10"/>
<path d="M42.8153 16.1631C42.848 25.1463 6.57225 25.2661 8.35907 15.4005C11.7802 -2.9744 40.2223 -2.34248 42.8153 16.1631Z" fill="#1A187E"/>
<path d="M29.3214 19.4045C30.2751 19.4045 31.0483 18.6313 31.0483 17.6776C31.0483 16.7238 30.2751 15.9507 29.3214 15.9507C28.3676 15.9507 27.5945 16.7238 27.5945 17.6776C27.5945 18.6313 28.3676 19.4045 29.3214 19.4045Z" fill="url(#paint2_linear_508_86)"/>
<path d="M21.9015 19.4045C22.8552 19.4045 23.6284 18.6313 23.6284 17.6776C23.6284 16.7238 22.8552 15.9507 21.9015 15.9507C20.9477 15.9507 20.1746 16.7238 20.1746 17.6776C20.1746 18.6313 20.9477 19.4045 21.9015 19.4045Z" fill="url(#paint3_linear_508_86)"/>
<path d="M11.4696 39.9584V39.9856C11.4533 41.3802 10.0532 42.3281 8.724 41.9086C7.97767 41.6744 7.26948 41.293 6.59942 40.7864C3.39622 38.3677 1.17358 33.0726 1.17358 26.9276C1.17358 22.0084 2.60086 17.634 4.80715 14.8448C3.93553 17.2363 3.46159 19.8185 3.46159 22.5096V22.8637C3.54875 28.4748 5.69512 33.5846 9.17071 37.4525C9.8789 38.2369 10.6361 38.9723 11.4478 39.6479C11.4478 39.7023 11.4587 39.7514 11.4642 39.8113V39.9529H11.4696V39.9584Z" fill="#F1EBF2" stroke="#1A187E" stroke-width="0.544763" stroke-miterlimit="10"/>
<path d="M11.4694 39.8167C11.1317 40.672 10.2165 41.1623 9.33942 40.8572C8.72384 40.6393 8.13549 40.2961 7.58528 39.8331C4.93229 37.6213 3.09644 32.7784 3.09644 27.1564C3.09644 25.6638 3.22718 24.2256 3.46687 22.8746C3.55404 28.4857 5.7004 33.5955 9.17599 37.4634C9.88418 38.2478 10.6414 38.9832 11.4531 39.6588C11.4531 39.7132 11.464 39.7623 11.4694 39.8222V39.8167Z" fill="#1A187E"/>
<path d="M39.53 39.9584V39.9856C39.5464 41.3802 40.9464 42.3281 42.2756 41.9086C43.022 41.6744 43.7301 41.293 44.4002 40.7864C47.6034 38.3677 49.826 33.0726 49.826 26.9276C49.826 22.0084 48.3988 17.634 46.1925 14.8448C47.0641 17.2363 47.538 19.8185 47.538 22.5096V22.8637C47.4509 28.4748 45.3045 33.5846 41.8289 37.4525C41.1207 38.2369 40.3635 38.9723 39.5518 39.6479C39.5464 39.7023 39.5409 39.7514 39.5355 39.8113V39.9529H39.53V39.9584Z" fill="#F1EBF2" stroke="#1A187E" stroke-width="0.544763" stroke-miterlimit="10"/>
<path d="M39.5356 39.8167C39.8734 40.672 40.7886 41.1623 41.6657 40.8572C42.2813 40.6393 42.8696 40.2961 43.4198 39.8331C46.0728 37.6213 47.9087 32.7784 47.9087 27.1564C47.9087 25.6638 47.7779 24.2256 47.5382 22.8746C47.4511 28.4857 45.3047 33.5955 41.8291 37.4634C41.1209 38.2478 40.3637 38.9832 39.552 39.6588C39.5465 39.7132 39.5411 39.7623 39.5356 39.8222V39.8167Z" fill="#1A187E"/>
<path d="M3.4668 22.1555C3.79365 22.8637 4.20223 23.5664 4.70886 24.2202C7.48715 27.8265 11.197 29.6297 12.5371 33.029C13.8282 36.303 14.0624 38.335 13.1146 40.9171" stroke="#20068D" stroke-width="0.544763" stroke-miterlimit="10"/>
<path d="M37.9176 40.9172C36.9643 38.3295 37.204 36.303 38.4951 33.029C39.8352 29.6297 43.545 27.8265 46.3233 24.2202C46.8245 23.5664 47.2331 22.8691 47.5654 22.161" stroke="#20068D" stroke-width="0.544763" stroke-miterlimit="10"/>
</g>
<defs>
<linearGradient id="paint0_linear_508_86" x1="25.5135" y1="48.2333" x2="25.5135" y2="45.7928" gradientUnits="userSpaceOnUse">
<stop stop-color="#4247FE"/>
<stop offset="1" stop-color="#00FFFF"/>
</linearGradient>
<linearGradient id="paint1_linear_508_86" x1="25.372" y1="38.1661" x2="25.6171" y2="28.7199" gradientUnits="userSpaceOnUse">
<stop stop-color="#4247FE"/>
<stop offset="1" stop-color="#00FFFF"/>
</linearGradient>
<linearGradient id="paint2_linear_508_86" x1="29.3214" y1="19.8784" x2="29.3214" y2="16.0977" gradientUnits="userSpaceOnUse">
<stop stop-color="#4247FE"/>
<stop offset="1" stop-color="#00FFFF"/>
</linearGradient>
<linearGradient id="paint3_linear_508_86" x1="21.9015" y1="19.8784" x2="21.9015" y2="16.0977" gradientUnits="userSpaceOnUse">
<stop stop-color="#4247FE"/>
<stop offset="1" stop-color="#00FFFF"/>
</linearGradient>
<clipPath id="clip0_508_86">
<rect width="49.1976" height="53" fill="white" transform="translate(0.901123)"/>
</clipPath>
</defs>
</svg>
